<svg xmlns="http://www.w3.org/2000/svg" width="140" height="84" viewBox="0 0 140 84"><g><g><g><g><g><path fill="#424448" d="M9.646 40.496c9.678 19.264 31.767 40.402 53.545 42.51 11.527 1.115 23.776-1.515 27.349-4.194 1.15-.865 1.58-2.38 1.087-3.858-.381-1.139-1.41-2.359-3.156-2.359-.646 0-1.332.172-2.038.508-5.624 2.67-12.83 3.583-22.498 2.095-23.438-3.606-42.966-28.118-47.414-38.29 4.831-7.435 17.12-25.85 27.49-29.414 2.652-.911 2.56-2.562 2.25-4.418C45.963 1.294 44.191 0 42.04 0c-.373 0-.76.037-1.139.115-5.144 1.028-19.718 12.802-31.303 34.19l-.126.372-.135-.373c-.19-.516-.046-1.845.213-11.035.133-4.74.272-11.876.314-15.224 0-.212.024-.487.05-.832.065-.772.161-1.941.161-3.837 0-1.335-2.413-1.932-4.808-1.932-2.3 0-4.317.512-5.01 1.274-.19.21-.274.434-.254.667.078.865.124 1.2.16 1.47.037.273.062.47.108 1.06.457 6.473.72 24.285.72 28.05v16.26c0 3.972-.087 8.098-.259 12.264l-.098 2.308C.497 68.184.35 71.684.161 74.394c-.016.229.064.434.242.626.626.67 2.38 1.088 4.57 1.086 2.305 0 4.296-.466 4.956-1.161.166-.176.24-.357.23-.553-.123-2.338-.4-7.927-.561-11.922-.15-3.658-.5-19.163.048-21.974z"/></g><g><path fill="#424448" d="M58.16 14.54c-3.388 0-6.936.915-10.541 2.717-2.565 1.283-10.962 6.548-11.332 20.448-.155 5.696 2.03 11.163 6.15 15.398 4.317 4.433 10.35 6.977 16.559 6.977 1.291 0 2.598-.108 3.886-.322 8.997-1.49 16.63-6.783 21.498-14.908l.287-.478-.026.556c-.007.114-.571 11.34-.758 13.595a.61.61 0 0 0 .175.481c.498.54 1.957.861 3.909.861 2.31 0 4.507-.462 5.004-1.053.08-.094.11-.185.094-.276-.5-2.858-.772-13.213-.772-16.124 0-.762-.026-7.458.016-7.71.751-4.611 7.13-14.956 16.734-14.956 1.524 0 4.934 1.319 5.785 1.319 1.028 0 1.933-.336 2.838-1.055.83-.657 1.097-1.706.717-2.803-.701-2.013-3.426-4.461-8.177-4.461-10.245 0-14.96 5.441-17.582 9.944l-.283.485.025-.56c.043-1.118.15-2 .258-2.932.144-1.176.29-2.391.338-4.25.014-.433-.155-.83-.494-1.18-.776-.794-2.449-1.308-4.266-1.308-1.73 0-3.175.45-3.868 1.2-.338.365-.49.797-.451 1.282.276 3.547.564 8.01.623 9.554.085 2.714.135 7.781.135 7.833l-.018.065C81.57 38.732 72.905 50.41 61.98 52.705c-1.048.22-2.134.331-3.224.331-4.146 0-8.084-1.606-10.81-4.405-2.83-2.904-4.261-6.942-4.137-11.678.265-10.101 5.117-13.19 10.06-15.486 1.591-.738 3.198-1.113 4.784-1.113 3.364 0 6.52 1.754 8.244 4.573 1.337 2.19 1.538 4.66.537 6.606-1.444 2.806-6.9 6.719-12.516 6.719-1.544 0-2.97-.31-4.235-.922a1.919 1.919 0 0 0-.825-.207c-.869 0-1.577.8-1.799 2.036-.283 1.56.27 3.56 2.158 4.266 1.53.57 3.184.86 4.93.86 7.8 0 15.65-5.738 18.097-9.702 1.96-3.18 1.79-7.642-.444-11.646-2.932-5.257-8.406-8.397-14.64-8.397z"/></g><g><path fill="#424448" d="M121.498 29.15c.654 7.838.057 18.584-.14 25.605-.043 1.67-.278 3.115-.282 3.796 0 .094.039.183.121.268.445.447 1.929.724 3.878.724 2.174 0 4.137-.352 4.57-.816.054-.058.079-.112.074-.165-.538-7.086-1.028-21.615-.413-29.83-.053-.059.33-4.636.459-5.576.013-.08-.016-.153-.08-.226-.416-.478-2.2-.814-4.342-.814-2.11 0-3.814.32-4.235.798-.07.08-.098.158-.09.244.103.846.508 5.94.48 5.993z"/></g><g><path fill="#424448" d="M130.757 12.371a5.122 5.122 0 1 1-10.246 0 5.122 5.122 0 0 1 5.124-5.122 5.122 5.122 0 0 1 5.122 5.122z"/></g></g></g><g><g><g><g><path fill="#424448" d="M136.065 55.676h.469c.254 0 .575.046.575.346 0 .342-.234.388-.547.388h-.497zm-.554 2.367h.554v-1.197h.348l.682 1.197h.583l-.75-1.224c.416-.034.736-.235.736-.75 0-.607-.395-.83-1.096-.83h-1.057zm-.891-1.398c0-1.136.836-1.96 1.887-1.96 1.037 0 1.886.824 1.886 1.96 0 1.143-.849 1.973-1.886 1.973-1.05 0-1.887-.83-1.887-1.973zm-.682 0c0 1.525 1.212 2.507 2.569 2.507 1.358 0 2.569-.982 2.569-2.507 0-1.518-1.21-2.495-2.569-2.495-1.357 0-2.569.977-2.569 2.495z"/></g></g></g></g></g></g></svg>